<?xml version="1.0" encoding="UTF-8"?>
<svg id="Layer_1" data-name="Layer 1" xmlns="http://www.w3.org/2000/svg" viewBox="0 0 517.07 156.92">
  <defs>
    <style>
      .cls-1 {
        fill: #c44a27;
      }

      .cls-1, .cls-2 {
        stroke-width: 0px;
      }

      .cls-2 {
        fill: #f37d39;
      }
    </style>
  </defs>
  <g>
    <path class="cls-1" d="M107.1,81.5c-1.54-.47-3.17.41-3.64,1.95-6.98,23.01-40.24,49.43-48.18,55.48-8.9-6.78-49.46-39.02-49.46-63.28s18.21-36.43,37.42-39.71c15.45,3.78,26.59,17.92,26.59,33.9,0,1.6,1.31,2.91,2.91,2.91s2.91-1.31,2.91-2.91c0-14.49-7.88-27.67-19.84-34.91,23.71.17,41.2,10.33,46.87,27.32.52,1.51,2.15,2.33,3.7,1.83,1.51-.52,2.33-2.15,1.83-3.69-4.6-13.73-15.71-23.57-31.1-28.22,6.08-3.52,10.18-10.1,10.18-17.6V2.92c0-1.6-1.31-2.91-2.91-2.91h-11.64C64.47,0,57.35,4.98,54.15,12.08c-1.8-3.61-4.16-6.92-7.1-9.86l-1.34-1.37c-1.13-1.13-3-1.13-4.13,0-1.13,1.13-1.13,3,0,4.13l1.37,1.34c6.08,6.08,9.43,14.17,9.43,22.78v.09C20.48,30.24,0,48.22,0,75.65c0,30.05,51.38,67.67,53.56,69.27.52.38,1.11.55,1.72.55s1.19-.17,1.72-.55c1.77-1.28,43.56-31.86,52.05-59.79.47-1.54-.41-3.17-1.95-3.64ZM58.19,20.37c0-8.03,6.52-14.55,14.55-14.55h8.73v8.73c0,8.03-6.52,14.55-14.55,14.55h-8.73v-8.73Z"/>
    <circle class="cls-1" cx="107.65" cy="72.74" r="2.91"/>
  </g>
  <g>
    <path class="cls-2" d="M205.25,125.92h-36.8c-1.66,0-2.65-1.99-1.66-3.48,2.98-3.98,2.82-12.6,1.33-22.55h-28.85c-1.33,4.64-2.49,12.93,7.46,22.55,1.33,1.33.66,3.48-.99,3.48h-25.03c-1.66,0-2.82-2.16-.66-3.48,4.97-2.82,8.95-6.3,11.6-13.93l14.75-47.91c1.82-6.13,2.32-11.44-1.99-15.75-1.33-1.33-.17-3.32,1.66-3.32h16.08c10.28,0,16.74,10.28,18.73,16.41.17.66,15.09,49.74,15.42,50.4,1.82,6.13,2.32,9.78,9.28,14.09,2.16,1.33,1.33,3.48-.33,3.48ZM167.28,95.25c-3.48-17.57-10.78-36.97-14.26-40.12l-12.27,40.12h26.53Z"/>
    <path class="cls-2" d="M275.54,95.25c0,16.91-14.92,30.67-33.16,30.67-4.14,0-7.96-.83-11.6-1.99.66,13.59,2.82,24.7,6.96,28.85,1.66,1.66,1.82,4.15-1.66,4.15h-33.49c-1.66,0-2.32-2.16-.66-3.48,5.8-4.31,6.8-7.96,6.8-14.09v-44.93c0-6.13-.99-9.78-6.8-14.26-1.66-1.33-.99-3.32.66-3.32,15.92,0,21.72-12.27,39.79-12.27h.33c18.07.17,32.83,13.76,32.83,30.67ZM252,95.25c0-14.42-4.31-26.03-9.62-26.03s-9.62,11.6-9.62,26.03,4.31,26.03,9.62,26.03,9.62-11.77,9.62-26.03Z"/>
    <path class="cls-2" d="M302.56,87.95c-1.16,18.57,1.16,30.17,5.8,33.82,1.82,1.33,1.82,4.14-1.66,4.14h-32c-1.82,0-2.65-2.16-.99-3.48,5.8-4.31,6.8-7.96,6.8-14.09v-13.93c0-6.13-1-9.78-6.8-14.26-1.66-1.33-1-3.32.66-3.32,15.92,0,22.55-10.78,28.85-12.1,3.48-.66,1.82,1.99,1.49,4.15l-.83,6.47c5.97-11.6,19.07-23.87,28.35-23.87,7.13,0,9.95,4.31,10.61,8.62,2.16,14.92-20.23,20.23-23.04,10.44-2.16-7.96-12.6,4.48-17.24,17.41ZM349.14,125.92h-32.33c-1.66,0-2.32-2.16-.66-3.48,5.8-4.31,6.8-7.96,6.8-14.09v-3.98c0-6.13-1-9.78-6.8-14.09-1.66-1.33-1-3.48.66-3.48,15.92,0,22.71-10.78,28.85-11.94,3.48-.83,1.99,1.82,1.66,3.98-4.64,29.68-2.65,38.3,3.65,42.94,1.66,1.33,1.82,4.14-1.82,4.14Z"/>
    <path class="cls-2" d="M388.1,113.49c6.13,1.66,16.25-.5,20.89-6.63,1.66-2.16,4.48.66,3.48,2.49-5.47,9.78-16.58,16.58-29.34,16.58-18.4,0-33.16-13.76-33.16-30.67s14.75-30.67,33.16-30.67c12.6,0,22.71,4.81,29.01,16.08,6.47,11.44-18.57,22.05-19.73,9.95-1-12.1-.33-21.39-5.97-21.39-9.12,0-20.89,37.8,1.66,44.26Z"/>
    <path class="cls-2" d="M475.8,95.25c0,16.91-14.75,30.67-32.99,30.67s-33.16-13.76-33.16-30.67,14.75-30.67,33.16-30.67,32.99,13.76,32.99,30.67ZM452.26,95.25c0-14.42-4.31-26.03-9.45-26.03s-9.62,11.6-9.62,26.03,4.31,26.03,9.62,26.03,9.45-11.77,9.45-26.03Z"/>
    <path class="cls-2" d="M517.07,75.85c0,2.16-.66,3.98-2.82,3.98h-8.12c-1,21.39,1.99,38.46,6.47,41.94,1.66,1.33,1.82,4.14-1.82,4.14h-33.49c-2.16,0-2.16-2.65-.5-4.14,5.47-5.14,5.31-17.57,5.31-24.7,0-4.31.17-11.77-2.16-17.24h-3.65c-2.16,0-2.82-1.82-2.82-3.98s.66-3.98,2.82-3.98h1c15.92,0,19.4-17.57,27.19-20.39,3.32-1.33,4.81,1.33,4.48,3.48-1,5.8-1.82,11.44-2.32,16.91h7.63c2.16,0,2.82,1.82,2.82,3.98Z"/>
  </g>
</svg>